<svg width="59" height="109" viewBox="0 0 59 109" fill="none" xmlns="http://www.w3.org/2000/svg">
<path d="M29.5 109C12.7155 109 0 43.6169 0 43.6169L59 43.6169C59 43.6169 46.2845 109 29.5 109Z" fill="#DC9D3D"/>
<path d="M59 43.6169C59 38.4673 55.892 33.5285 50.3597 29.8871C44.8273 26.2458 37.3239 24.2001 29.5 24.2001C21.6761 24.2001 14.1727 26.2458 8.64036 29.8871C3.10804 33.5285 1.18137e-06 38.4672 0 43.6169L59 43.6169Z" fill="#DC9D3D"/>
<path d="M29.9538 105.214C14.9769 105.214 3.63077 42.7501 3.63077 42.7501L56.2769 42.7501C56.2769 42.7501 44.9308 105.214 29.9538 105.214Z" fill="#F5BA60"/>
<path d="M56.2769 42.7501C56.2769 37.8303 53.5036 33.1121 48.5671 29.6333C43.6305 26.1545 36.9352 24.2001 29.9539 24.2001C22.9725 24.2001 16.2772 26.1545 11.3406 29.6333C6.40409 33.1121 3.63077 37.8303 3.63077 42.7501L56.2769 42.7501Z" fill="#F5BA60"/>
<path d="M2.5 42.5001C8 43.1668 19.4881 45.0001 30 45.0001C40 45.0001 50 43.1668 57 42.5001" stroke="#DC9D3D"/>
<path d="M5 59.0001C10.0459 59.8001 20.5854 62.0001 30.2294 62.0001C39.4037 62.0001 48.578 59.8001 55 59.0001" stroke="#DC9D3D"/>
<path d="M10 75.0001C14.0367 75.8001 22.4683 78.0001 30.1835 78.0001C37.5229 78.0001 44.8624 75.8001 50 75.0001" stroke="#DC9D3D"/>
<path d="M15 89.0001C18.0275 89.8001 24.3512 92.0001 30.1376 92.0001C35.6422 92.0001 41.1468 89.8001 45 89.0001" stroke="#DC9D3D"/>
<path d="M29.3959 31.8665C25.2575 32.3434 -8.63552 17.7472 3.67976 8.79606C13.3176 1.79094 30.5003 27.8096 29.3959 31.8665Z" fill="#24A677"/>
<path d="M29.3739 32.0001C25.9874 30.0247 14.4763 -0.171085 31.1584 0.000822745C44.2138 0.135356 33.7235 29.55 29.3739 32.0001Z" fill="#24A677"/>
<path d="M29.3043 31.8335C33.4015 32.5063 68.2824 19.546 56.6293 10.0247C47.5098 2.5734 28.4924 27.731 29.3043 31.8335Z" fill="#24A677"/>
<path d="M29.6913 31.859C25.8989 32.3204 -5.16051 18.1976 6.12515 9.53676C14.9572 2.75883 30.7034 27.9336 29.6913 31.859Z" fill="#4EC9AB"/>
<path d="M29.6712 31.9882C26.5678 30.0769 16.0191 0.860438 31.3065 1.02677C43.2703 1.15694 33.6571 29.6176 29.6712 31.9882Z" fill="#4EC9AB"/>
<path d="M29.6074 31.827C33.3621 32.478 65.3267 19.938 54.6479 10.7255C46.2908 3.51591 28.8633 27.8575 29.6074 31.827Z" fill="#4EC9AB"/>
<path d="M20.6871 66.7651C20.0271 66.8384 19.4404 67.1684 18.9271 67.7551C18.4504 68.3418 18.2121 68.9284 18.2121 69.5151C18.2121 70.5051 18.8171 71.0001 20.0271 71.0001H27.4521C27.3421 72.8701 27.2871 75.6751 27.2871 79.4151C27.2871 80.6984 27.8554 81.3401 28.9921 81.3401C30.7521 81.3401 31.6321 79.3234 31.6321 75.2901V74.9051V72.2651C31.6321 71.6051 31.6504 71.1834 31.6871 71.0001H38.0121C38.6354 70.8168 39.1671 70.4684 39.6071 69.9551C40.0471 69.4051 40.2671 68.8368 40.2671 68.2501C40.2671 67.4434 39.7354 66.9484 38.6721 66.7651H31.7421L31.8521 58.5151C31.5588 57.4518 30.9904 56.9201 30.1471 56.9201C28.3138 56.9201 27.3971 58.7718 27.3971 62.4751L27.5071 66.3251V66.7651H20.6871Z" fill="white"/>
</svg>
