<svg width="61" height="109" viewBox="0 0 61 109" fill="none" xmlns="http://www.w3.org/2000/svg">
<path d="M30.5 109C13.1465 109 0 43.4626 0 43.4626L61 43.4626C61 43.4626 47.8534 109 30.5 109Z" fill="#DC9D3D"/>
<path d="M61 43.4626C61 38.3008 57.7866 33.3504 52.0668 29.7005C46.3469 26.0505 38.5891 24 30.5 24C22.4109 24 14.6531 26.0505 8.93325 29.7005C3.21339 33.3504 1.22142e-06 38.3008 0 43.4626L61 43.4626Z" fill="#DC9D3D"/>
<path d="M31.9538 105.214C16.9769 105.214 5.63077 42.7501 5.63077 42.7501L58.2769 42.7501C58.2769 42.7501 46.9308 105.214 31.9538 105.214Z" fill="#F5BA60"/>
<path d="M58.2769 42.7501C58.2769 37.8303 55.5036 33.1121 50.5671 29.6333C45.6305 26.1545 38.9352 24.2001 31.9539 24.2001C24.9725 24.2001 18.2772 26.1545 13.3406 29.6333C8.40409 33.1121 5.63077 37.8303 5.63077 42.7501L58.2769 42.7501Z" fill="#F5BA60"/>
<path d="M4.5 42.5001C10 43.1668 21.4881 45.0001 32 45.0001C42 45.0001 52 43.1668 59 42.5001" stroke="#DC9D3D"/>
<path d="M7 59.0001C12.0459 59.8001 22.5854 62.0001 32.2294 62.0001C41.4037 62.0001 50.578 59.8001 57 59.0001" stroke="#DC9D3D"/>
<path d="M12 75.0001C16.0367 75.8001 24.4683 78.0001 32.1835 78.0001C39.5229 78.0001 46.8624 75.8001 52 75.0001" stroke="#DC9D3D"/>
<path d="M17 89.0001C20.0275 89.8001 26.3512 92.0001 32.1376 92.0001C37.6422 92.0001 43.1468 89.8001 47 89.0001" stroke="#DC9D3D"/>
<path d="M31.3959 31.8665C27.2575 32.3434 -6.63552 17.7472 5.67976 8.79607C15.3176 1.79094 32.5003 27.8096 31.3959 31.8665Z" fill="#24A677"/>
<path d="M31.3739 32.0001C27.9874 30.0247 16.4763 -0.171085 33.1584 0.000822745C46.2138 0.135356 35.7235 29.55 31.3739 32.0001Z" fill="#24A677"/>
<path d="M31.3043 31.8335C35.4015 32.5063 70.2824 19.546 58.6293 10.0247C49.5098 2.5734 30.4924 27.731 31.3043 31.8335Z" fill="#24A677"/>
<path d="M31.6913 31.859C27.8989 32.3204 -3.16051 18.1976 8.12515 9.53676C16.9572 2.75883 32.7034 27.9336 31.6913 31.859Z" fill="#4EC9AB"/>
<path d="M31.6712 31.9882C28.5678 30.0769 18.0191 0.860438 33.3065 1.02677C45.2703 1.15694 35.6571 29.6176 31.6712 31.9882Z" fill="#4EC9AB"/>
<path d="M31.6074 31.827C35.3621 32.478 67.3267 19.938 56.6479 10.7255C48.2908 3.51591 30.8633 27.8575 31.6074 31.827Z" fill="#4EC9AB"/>
</svg>
