<svg width="111" height="278" viewBox="0 0 111 278" fill="none" xmlns="http://www.w3.org/2000/svg">
<path d="M6.5567 149.773C10.6704 188.532 36.8657 250.257 49.4491 276.274L91.6855 274.628C96.4511 239.203 104.617 188.987 97.5275 146.227C91.0922 107.414 56.2549 5.62853 38.9271 6.30387C21.5994 6.97921 1.41451 101.323 6.5567 149.773Z" fill="#C766BD"/>
<path d="M12.5567 145.773C16.6704 184.532 42.8657 246.257 55.4491 272.274L97.6855 270.628C102.451 235.203 110.617 184.987 103.527 142.227C97.0922 103.414 62.2549 1.62856 44.9271 2.3039C27.5994 2.97924 7.41451 97.3232 12.5567 145.773Z" fill="#E3C5F5"/>
<path d="M39.7347 170.88C42.3959 201.751 57.6432 251.093 64.9341 271.905L88.5902 270.983C90.936 242.846 95.0519 202.975 90.6862 168.894C86.7235 137.96 60.0656 57.8483 50.3606 58.2265C40.6555 58.6048 36.4083 132.292 39.7347 170.88Z" fill="white"/>
</svg>
