<svg width="111" height="279" viewBox="0 0 111 279" fill="none" xmlns="http://www.w3.org/2000/svg">
<path d="M97.6474 150.597C93.5337 189.357 67.3384 251.081 54.755 277.099L12.5186 275.453C7.75307 240.027 -0.413015 189.811 6.67669 147.051C13.112 108.238 47.9493 6.45296 65.277 7.1283C82.6048 7.80364 102.79 102.148 97.6474 150.597Z" fill="#C766BD"/>
<path d="M104.647 146.597C100.534 185.357 74.3384 247.081 61.755 273.099L19.5186 271.453C14.7531 236.027 6.58698 185.812 13.6767 143.052C20.112 104.238 54.9493 2.45302 72.277 3.12836C89.6048 3.80371 109.79 98.1477 104.647 146.597Z" fill="#E3C5F5"/>
<path d="M77.4694 171.705C74.8082 202.575 59.561 251.917 52.27 272.729L28.6139 271.807C26.2682 243.67 22.1522 203.799 26.5179 169.719C30.4807 138.784 57.1385 58.6727 66.8436 59.051C76.5486 59.4292 80.7958 133.117 77.4694 171.705Z" fill="white"/>
</svg>
